<mxfile host="app.diagrams.net" modified="2023-08-07T13:53:55.935Z" agent="Mozilla/5.0 (Windows NT 10.0; Win64; x64) AppleWebKit/537.36 (KHTML, like Gecko) Chrome/115.0.0.0 Safari/537.36" etag="zzldcoU_HAZV5Ix0cc_t" version="21.1.7" type="github">
  <diagram name="Page-1" id="nev_oSiG1bNy6XnhGCR6">
    <mxGraphModel dx="1290" dy="613" grid="1" gridSize="10" guides="1" tooltips="1" connect="1" arrows="1" fold="1" page="1" pageScale="1" pageWidth="850" pageHeight="1100" math="0" shadow="0">
      <root>
        <mxCell id="0" />
        <mxCell id="1" parent="0" />
        <mxCell id="dr2A4iw-2kptEsfGcIVv-34" style="edgeStyle=orthogonalEdgeStyle;rounded=0;orthogonalLoop=1;jettySize=auto;html=1;exitX=0.5;exitY=1;exitDx=0;exitDy=0;entryX=0.5;entryY=0;entryDx=0;entryDy=0;" edge="1" parent="1" source="dr2A4iw-2kptEsfGcIVv-1" target="dr2A4iw-2kptEsfGcIVv-4">
          <mxGeometry relative="1" as="geometry" />
        </mxCell>
        <mxCell id="dr2A4iw-2kptEsfGcIVv-1" value="&lt;font style=&quot;font-size: 14px;&quot;&gt;Fill&lt;br&gt;&lt;/font&gt;" style="rounded=0;whiteSpace=wrap;html=1;" vertex="1" parent="1">
          <mxGeometry x="210" y="400" width="120" height="60" as="geometry" />
        </mxCell>
        <mxCell id="dr2A4iw-2kptEsfGcIVv-22" style="edgeStyle=orthogonalEdgeStyle;rounded=0;orthogonalLoop=1;jettySize=auto;html=1;entryX=0;entryY=0.5;entryDx=0;entryDy=0;" edge="1" parent="1" source="dr2A4iw-2kptEsfGcIVv-2" target="dr2A4iw-2kptEsfGcIVv-3">
          <mxGeometry relative="1" as="geometry" />
        </mxCell>
        <mxCell id="dr2A4iw-2kptEsfGcIVv-2" value="" style="rounded=0;whiteSpace=wrap;html=1;" vertex="1" parent="1">
          <mxGeometry x="60" y="280" width="120" height="60" as="geometry" />
        </mxCell>
        <mxCell id="dr2A4iw-2kptEsfGcIVv-31" style="edgeStyle=orthogonalEdgeStyle;rounded=0;orthogonalLoop=1;jettySize=auto;html=1;exitX=0.5;exitY=1;exitDx=0;exitDy=0;" edge="1" parent="1" source="dr2A4iw-2kptEsfGcIVv-3">
          <mxGeometry relative="1" as="geometry">
            <mxPoint x="270" y="400" as="targetPoint" />
          </mxGeometry>
        </mxCell>
        <mxCell id="dr2A4iw-2kptEsfGcIVv-3" value="&lt;font size=&quot;3&quot;&gt;R&lt;/font&gt;" style="rhombus;whiteSpace=wrap;html=1;" vertex="1" parent="1">
          <mxGeometry x="230" y="270" width="80" height="80" as="geometry" />
        </mxCell>
        <mxCell id="dr2A4iw-2kptEsfGcIVv-35" style="edgeStyle=orthogonalEdgeStyle;rounded=0;orthogonalLoop=1;jettySize=auto;html=1;exitX=0.5;exitY=1;exitDx=0;exitDy=0;entryX=0.5;entryY=0;entryDx=0;entryDy=0;" edge="1" parent="1" source="dr2A4iw-2kptEsfGcIVv-4" target="dr2A4iw-2kptEsfGcIVv-5">
          <mxGeometry relative="1" as="geometry" />
        </mxCell>
        <mxCell id="dr2A4iw-2kptEsfGcIVv-4" value="&lt;font style=&quot;font-size: 14px;&quot;&gt;Fill&lt;/font&gt;" style="rounded=0;whiteSpace=wrap;html=1;" vertex="1" parent="1">
          <mxGeometry x="210" y="520" width="120" height="60" as="geometry" />
        </mxCell>
        <mxCell id="dr2A4iw-2kptEsfGcIVv-36" style="edgeStyle=orthogonalEdgeStyle;rounded=0;orthogonalLoop=1;jettySize=auto;html=1;exitX=1;exitY=0.5;exitDx=0;exitDy=0;entryX=0;entryY=0.5;entryDx=0;entryDy=0;" edge="1" parent="1" source="dr2A4iw-2kptEsfGcIVv-5" target="dr2A4iw-2kptEsfGcIVv-6">
          <mxGeometry relative="1" as="geometry" />
        </mxCell>
        <mxCell id="dr2A4iw-2kptEsfGcIVv-5" value="&lt;font size=&quot;3&quot;&gt;Function&lt;/font&gt;" style="rhombus;whiteSpace=wrap;html=1;" vertex="1" parent="1">
          <mxGeometry x="230" y="620" width="80" height="80" as="geometry" />
        </mxCell>
        <mxCell id="dr2A4iw-2kptEsfGcIVv-48" value="" style="edgeStyle=orthogonalEdgeStyle;rounded=0;orthogonalLoop=1;jettySize=auto;html=1;" edge="1" parent="1" source="dr2A4iw-2kptEsfGcIVv-6" target="dr2A4iw-2kptEsfGcIVv-12">
          <mxGeometry relative="1" as="geometry" />
        </mxCell>
        <mxCell id="dr2A4iw-2kptEsfGcIVv-6" value="&lt;font style=&quot;font-size: 14px;&quot;&gt;Wash&lt;/font&gt;" style="rounded=0;whiteSpace=wrap;html=1;" vertex="1" parent="1">
          <mxGeometry x="385" y="630" width="120" height="60" as="geometry" />
        </mxCell>
        <mxCell id="dr2A4iw-2kptEsfGcIVv-47" value="" style="edgeStyle=orthogonalEdgeStyle;rounded=0;orthogonalLoop=1;jettySize=auto;html=1;" edge="1" parent="1" source="dr2A4iw-2kptEsfGcIVv-7" target="dr2A4iw-2kptEsfGcIVv-6">
          <mxGeometry relative="1" as="geometry" />
        </mxCell>
        <mxCell id="dr2A4iw-2kptEsfGcIVv-7" value="&lt;font style=&quot;font-size: 14px;&quot;&gt;Heat&lt;/font&gt;" style="rounded=0;whiteSpace=wrap;html=1;" vertex="1" parent="1">
          <mxGeometry x="590" y="630" width="120" height="60" as="geometry" />
        </mxCell>
        <mxCell id="dr2A4iw-2kptEsfGcIVv-45" value="" style="edgeStyle=orthogonalEdgeStyle;rounded=0;orthogonalLoop=1;jettySize=auto;html=1;" edge="1" parent="1" source="dr2A4iw-2kptEsfGcIVv-8" target="dr2A4iw-2kptEsfGcIVv-9">
          <mxGeometry relative="1" as="geometry" />
        </mxCell>
        <mxCell id="dr2A4iw-2kptEsfGcIVv-8" value="&lt;font style=&quot;font-size: 14px;&quot;&gt;Heat&lt;/font&gt;" style="rounded=0;whiteSpace=wrap;html=1;" vertex="1" parent="1">
          <mxGeometry x="385" y="740" width="120" height="60" as="geometry" />
        </mxCell>
        <mxCell id="dr2A4iw-2kptEsfGcIVv-46" value="" style="edgeStyle=orthogonalEdgeStyle;rounded=0;orthogonalLoop=1;jettySize=auto;html=1;" edge="1" parent="1" source="dr2A4iw-2kptEsfGcIVv-9" target="dr2A4iw-2kptEsfGcIVv-7">
          <mxGeometry relative="1" as="geometry" />
        </mxCell>
        <mxCell id="dr2A4iw-2kptEsfGcIVv-9" value="&lt;font style=&quot;font-size: 14px;&quot;&gt;Heat&lt;/font&gt;" style="rounded=0;whiteSpace=wrap;html=1;" vertex="1" parent="1">
          <mxGeometry x="590" y="740" width="120" height="60" as="geometry" />
        </mxCell>
        <mxCell id="dr2A4iw-2kptEsfGcIVv-49" value="" style="edgeStyle=orthogonalEdgeStyle;rounded=0;orthogonalLoop=1;jettySize=auto;html=1;" edge="1" parent="1" source="dr2A4iw-2kptEsfGcIVv-12" target="dr2A4iw-2kptEsfGcIVv-13">
          <mxGeometry relative="1" as="geometry" />
        </mxCell>
        <mxCell id="dr2A4iw-2kptEsfGcIVv-12" value="&lt;font style=&quot;font-size: 14px;&quot;&gt;Wash&lt;/font&gt;" style="rounded=0;whiteSpace=wrap;html=1;" vertex="1" parent="1">
          <mxGeometry x="385" y="520" width="120" height="60" as="geometry" />
        </mxCell>
        <mxCell id="dr2A4iw-2kptEsfGcIVv-50" value="" style="edgeStyle=orthogonalEdgeStyle;rounded=0;orthogonalLoop=1;jettySize=auto;html=1;" edge="1" parent="1" source="dr2A4iw-2kptEsfGcIVv-13" target="dr2A4iw-2kptEsfGcIVv-14">
          <mxGeometry relative="1" as="geometry" />
        </mxCell>
        <mxCell id="dr2A4iw-2kptEsfGcIVv-13" value="&lt;font style=&quot;font-size: 14px;&quot;&gt;Wash&lt;/font&gt;" style="rounded=0;whiteSpace=wrap;html=1;" vertex="1" parent="1">
          <mxGeometry x="385" y="400" width="120" height="60" as="geometry" />
        </mxCell>
        <mxCell id="dr2A4iw-2kptEsfGcIVv-51" value="" style="edgeStyle=orthogonalEdgeStyle;rounded=0;orthogonalLoop=1;jettySize=auto;html=1;" edge="1" parent="1" source="dr2A4iw-2kptEsfGcIVv-14" target="dr2A4iw-2kptEsfGcIVv-15">
          <mxGeometry relative="1" as="geometry" />
        </mxCell>
        <mxCell id="dr2A4iw-2kptEsfGcIVv-14" value="&lt;font style=&quot;font-size: 14px;&quot;&gt;Drain&lt;/font&gt;" style="rounded=0;whiteSpace=wrap;html=1;" vertex="1" parent="1">
          <mxGeometry x="385" y="280" width="120" height="60" as="geometry" />
        </mxCell>
        <mxCell id="dr2A4iw-2kptEsfGcIVv-52" value="" style="edgeStyle=orthogonalEdgeStyle;rounded=0;orthogonalLoop=1;jettySize=auto;html=1;" edge="1" parent="1" source="dr2A4iw-2kptEsfGcIVv-15" target="dr2A4iw-2kptEsfGcIVv-16">
          <mxGeometry relative="1" as="geometry" />
        </mxCell>
        <mxCell id="dr2A4iw-2kptEsfGcIVv-15" value="&lt;font style=&quot;font-size: 14px;&quot;&gt;Drain&lt;/font&gt;" style="rounded=0;whiteSpace=wrap;html=1;" vertex="1" parent="1">
          <mxGeometry x="385" y="160" width="120" height="60" as="geometry" />
        </mxCell>
        <mxCell id="dr2A4iw-2kptEsfGcIVv-53" value="" style="edgeStyle=orthogonalEdgeStyle;rounded=0;orthogonalLoop=1;jettySize=auto;html=1;" edge="1" parent="1" source="dr2A4iw-2kptEsfGcIVv-16" target="dr2A4iw-2kptEsfGcIVv-17">
          <mxGeometry relative="1" as="geometry" />
        </mxCell>
        <mxCell id="dr2A4iw-2kptEsfGcIVv-16" value="&lt;font style=&quot;font-size: 14px;&quot;&gt;Dry&lt;/font&gt;" style="rounded=0;whiteSpace=wrap;html=1;" vertex="1" parent="1">
          <mxGeometry x="550" y="160" width="120" height="60" as="geometry" />
        </mxCell>
        <mxCell id="dr2A4iw-2kptEsfGcIVv-60" value="" style="edgeStyle=orthogonalEdgeStyle;rounded=0;orthogonalLoop=1;jettySize=auto;html=1;" edge="1" parent="1" source="dr2A4iw-2kptEsfGcIVv-17" target="dr2A4iw-2kptEsfGcIVv-59">
          <mxGeometry relative="1" as="geometry" />
        </mxCell>
        <mxCell id="dr2A4iw-2kptEsfGcIVv-17" value="&lt;font style=&quot;font-size: 14px;&quot;&gt;Dry&lt;/font&gt;" style="rounded=0;whiteSpace=wrap;html=1;" vertex="1" parent="1">
          <mxGeometry x="720" y="160" width="120" height="60" as="geometry" />
        </mxCell>
        <mxCell id="dr2A4iw-2kptEsfGcIVv-19" value="0000" style="text;html=1;strokeColor=none;fillColor=none;align=center;verticalAlign=middle;whiteSpace=wrap;rounded=0;" vertex="1" parent="1">
          <mxGeometry x="130" y="250" width="60" height="30" as="geometry" />
        </mxCell>
        <mxCell id="dr2A4iw-2kptEsfGcIVv-23" value="" style="endArrow=classic;html=1;rounded=0;" edge="1" parent="1">
          <mxGeometry width="50" height="50" relative="1" as="geometry">
            <mxPoint x="120" y="200" as="sourcePoint" />
            <mxPoint x="119.5" y="280" as="targetPoint" />
          </mxGeometry>
        </mxCell>
        <mxCell id="dr2A4iw-2kptEsfGcIVv-24" value="Start,Reset" style="text;html=1;strokeColor=none;fillColor=none;align=center;verticalAlign=middle;whiteSpace=wrap;rounded=0;" vertex="1" parent="1">
          <mxGeometry x="90" y="175" width="60" height="30" as="geometry" />
        </mxCell>
        <mxCell id="dr2A4iw-2kptEsfGcIVv-28" value="" style="endArrow=none;html=1;rounded=0;" edge="1" parent="1">
          <mxGeometry width="50" height="50" relative="1" as="geometry">
            <mxPoint x="270" y="270" as="sourcePoint" />
            <mxPoint x="270" y="220" as="targetPoint" />
          </mxGeometry>
        </mxCell>
        <mxCell id="dr2A4iw-2kptEsfGcIVv-29" value="" style="endArrow=classic;html=1;rounded=0;" edge="1" parent="1">
          <mxGeometry width="50" height="50" relative="1" as="geometry">
            <mxPoint x="270" y="220" as="sourcePoint" />
            <mxPoint x="120" y="220" as="targetPoint" />
          </mxGeometry>
        </mxCell>
        <mxCell id="dr2A4iw-2kptEsfGcIVv-30" value="0" style="text;html=1;strokeColor=none;fillColor=none;align=center;verticalAlign=middle;whiteSpace=wrap;rounded=0;" vertex="1" parent="1">
          <mxGeometry x="230" y="190" width="60" height="30" as="geometry" />
        </mxCell>
        <mxCell id="dr2A4iw-2kptEsfGcIVv-32" value="1" style="text;html=1;strokeColor=none;fillColor=none;align=center;verticalAlign=middle;whiteSpace=wrap;rounded=0;" vertex="1" parent="1">
          <mxGeometry x="170" y="280" width="60" height="30" as="geometry" />
        </mxCell>
        <mxCell id="dr2A4iw-2kptEsfGcIVv-42" value="" style="endArrow=none;html=1;rounded=0;" edge="1" parent="1">
          <mxGeometry width="50" height="50" relative="1" as="geometry">
            <mxPoint x="270" y="770" as="sourcePoint" />
            <mxPoint x="270" y="700" as="targetPoint" />
          </mxGeometry>
        </mxCell>
        <mxCell id="dr2A4iw-2kptEsfGcIVv-44" value="" style="endArrow=classic;html=1;rounded=0;entryX=0;entryY=0.5;entryDx=0;entryDy=0;" edge="1" parent="1" target="dr2A4iw-2kptEsfGcIVv-8">
          <mxGeometry width="50" height="50" relative="1" as="geometry">
            <mxPoint x="270" y="770" as="sourcePoint" />
            <mxPoint x="420" y="870" as="targetPoint" />
          </mxGeometry>
        </mxCell>
        <mxCell id="dr2A4iw-2kptEsfGcIVv-54" value="1" style="text;html=1;strokeColor=none;fillColor=none;align=center;verticalAlign=middle;whiteSpace=wrap;rounded=0;" vertex="1" parent="1">
          <mxGeometry x="250" y="360" width="60" height="30" as="geometry" />
        </mxCell>
        <mxCell id="dr2A4iw-2kptEsfGcIVv-55" value="cold" style="text;html=1;strokeColor=none;fillColor=none;align=center;verticalAlign=middle;whiteSpace=wrap;rounded=0;" vertex="1" parent="1">
          <mxGeometry x="310" y="630" width="60" height="30" as="geometry" />
        </mxCell>
        <mxCell id="dr2A4iw-2kptEsfGcIVv-57" value="warm" style="text;html=1;strokeColor=none;fillColor=none;align=center;verticalAlign=middle;whiteSpace=wrap;rounded=0;" vertex="1" parent="1">
          <mxGeometry x="290" y="740" width="60" height="30" as="geometry" />
        </mxCell>
        <mxCell id="dr2A4iw-2kptEsfGcIVv-59" value="&lt;font style=&quot;font-size: 14px;&quot;&gt;Finish&lt;/font&gt;" style="rounded=0;whiteSpace=wrap;html=1;" vertex="1" parent="1">
          <mxGeometry x="720" y="280" width="120" height="60" as="geometry" />
        </mxCell>
        <mxCell id="dr2A4iw-2kptEsfGcIVv-61" value="0001" style="text;html=1;strokeColor=none;fillColor=none;align=center;verticalAlign=middle;whiteSpace=wrap;rounded=0;" vertex="1" parent="1">
          <mxGeometry x="280" y="370" width="60" height="30" as="geometry" />
        </mxCell>
        <mxCell id="dr2A4iw-2kptEsfGcIVv-62" value="0010" style="text;html=1;strokeColor=none;fillColor=none;align=center;verticalAlign=middle;whiteSpace=wrap;rounded=0;" vertex="1" parent="1">
          <mxGeometry x="280" y="490" width="60" height="30" as="geometry" />
        </mxCell>
        <mxCell id="dr2A4iw-2kptEsfGcIVv-63" value="0110" style="text;html=1;strokeColor=none;fillColor=none;align=center;verticalAlign=middle;whiteSpace=wrap;rounded=0;" vertex="1" parent="1">
          <mxGeometry x="460" y="600" width="60" height="30" as="geometry" />
        </mxCell>
        <mxCell id="dr2A4iw-2kptEsfGcIVv-64" value="0110" style="text;html=1;strokeColor=none;fillColor=none;align=center;verticalAlign=middle;whiteSpace=wrap;rounded=0;" vertex="1" parent="1">
          <mxGeometry x="460" y="710" width="60" height="30" as="geometry" />
        </mxCell>
        <mxCell id="dr2A4iw-2kptEsfGcIVv-65" value="0100" style="text;html=1;strokeColor=none;fillColor=none;align=center;verticalAlign=middle;whiteSpace=wrap;rounded=0;" vertex="1" parent="1">
          <mxGeometry x="660" y="710" width="60" height="30" as="geometry" />
        </mxCell>
        <mxCell id="dr2A4iw-2kptEsfGcIVv-66" value="0101" style="text;html=1;strokeColor=none;fillColor=none;align=center;verticalAlign=middle;whiteSpace=wrap;rounded=0;" vertex="1" parent="1">
          <mxGeometry x="660" y="600" width="60" height="30" as="geometry" />
        </mxCell>
        <mxCell id="dr2A4iw-2kptEsfGcIVv-67" value="0111" style="text;html=1;strokeColor=none;fillColor=none;align=center;verticalAlign=middle;whiteSpace=wrap;rounded=0;" vertex="1" parent="1">
          <mxGeometry x="460" y="490" width="60" height="30" as="geometry" />
        </mxCell>
        <mxCell id="dr2A4iw-2kptEsfGcIVv-68" value="1000" style="text;html=1;strokeColor=none;fillColor=none;align=center;verticalAlign=middle;whiteSpace=wrap;rounded=0;" vertex="1" parent="1">
          <mxGeometry x="460" y="370" width="60" height="30" as="geometry" />
        </mxCell>
        <mxCell id="dr2A4iw-2kptEsfGcIVv-69" value="1001" style="text;html=1;strokeColor=none;fillColor=none;align=center;verticalAlign=middle;whiteSpace=wrap;rounded=0;" vertex="1" parent="1">
          <mxGeometry x="460" y="250" width="60" height="30" as="geometry" />
        </mxCell>
        <mxCell id="dr2A4iw-2kptEsfGcIVv-70" value="1010" style="text;html=1;strokeColor=none;fillColor=none;align=center;verticalAlign=middle;whiteSpace=wrap;rounded=0;" vertex="1" parent="1">
          <mxGeometry x="460" y="130" width="60" height="30" as="geometry" />
        </mxCell>
        <mxCell id="dr2A4iw-2kptEsfGcIVv-71" value="1011" style="text;html=1;strokeColor=none;fillColor=none;align=center;verticalAlign=middle;whiteSpace=wrap;rounded=0;" vertex="1" parent="1">
          <mxGeometry x="620" y="130" width="60" height="30" as="geometry" />
        </mxCell>
        <mxCell id="dr2A4iw-2kptEsfGcIVv-73" value="1100" style="text;html=1;strokeColor=none;fillColor=none;align=center;verticalAlign=middle;whiteSpace=wrap;rounded=0;" vertex="1" parent="1">
          <mxGeometry x="790" y="130" width="60" height="30" as="geometry" />
        </mxCell>
        <mxCell id="dr2A4iw-2kptEsfGcIVv-74" value="1101" style="text;html=1;strokeColor=none;fillColor=none;align=center;verticalAlign=middle;whiteSpace=wrap;rounded=0;" vertex="1" parent="1">
          <mxGeometry x="790" y="250" width="60" height="30" as="geometry" />
        </mxCell>
      </root>
    </mxGraphModel>
  </diagram>
</mxfile>
